<svg version="1.1" id="Слой_1" xmlns="http://www.w3.org/2000/svg" x="0" y="0" viewBox="0 0 191.6 105.3" xml:space="preserve"><style>.st0{fill:none}.st1{fill:#8dbc1b}.st2{fill:#499e12}.st4{fill:#443a31}</style><path class="st0" d="M139.4 43.6l1.9 3.9 1.6-3.9zM51.7 43.6h-3.5l1.5 3.9z"/><path class="st1" d="M108.1 29.6c.1.3.2.5.3.8l.2 1.8c1.4.5 2.9-.4 3.1-1.9l.1-1.6 4.3 4c.6.5.8 1.3.7 2l-.3 1.7c.7.5 1.7.6 2.4.2l1.6-3.2L110.9 9l-4.6 11.9 4.5 8.8h-2.7z"/><path class="st2" d="M123.6 39.1c.4.6.5 1.4.1 2.1l-.1.2.9 2.2c.8.1 1.6-.2 2.1-.9l.9-1.3 1.7 5.7c.2.7.1 1.5-.4 2.1l-1.1 1.4c.6 1.4 2.3 1.8 3.5.8l1.2-1 .2 5.9c0 .8-.3 1.5-.9 1.9l-1.4 1c.2 1.5 1.8 2.4 3.2 1.7l1.4-.7-.5 2h1.1l5.8-14.8-2-3.9h3.5l1.1-2.8L130.4 14l-9.9 19.5.7 1.7 2.4 3.9z"/><path class="st1" d="M119.9 35.6l.5-1.5.7 1.1-.7-1.7-1.6 3.2c.5-.2.9-.6 1.1-1.1z"/><path class="st2" d="M119.9 35.6l.5-1.5.7 1.1-.7-1.7-1.6 3.2c.5-.2.9-.6 1.1-1.1z"/><path class="st1" d="M123 42.8c.4.5.9.7 1.5.8l-.9-2.2-.6 1.4z"/><path class="st2" d="M123 42.8c.4.5.9.7 1.5.8l-.9-2.2-.6 1.4z"/><path class="st1" d="M142.9 43.6l-1.6 3.9 7.5 14.8h-13.3v.1h19.3l4-8.4-10-25.6-4.8 12.4 1.4 2.8z"/><path class="st2" d="M141.3 47.5l-5.8 14.8h13.3z"/><path class="st1" d="M141.3 47.5l-5.8 14.8h13.3z"/><path class="st2" d="M145.4 43.6l-1.4-2.8-1.1 2.8z"/><path class="st1" d="M145.4 43.6l-1.4-2.8-1.1 2.8z"/><path class="st2" d="M173.8 62.4l-9.5-19.6-5.5 11.2 3.3 8.4z"/><path class="st1" d="M162.1 62.4l-3.3-8.4-4 8.4z"/><path class="st2" d="M162.1 62.4l-3.3-8.4-4 8.4z"/><path class="st1" d="M72.6 36.8l1.6.7c1.2-.9 1.1-2.7-.1-3.6l-1.3-.9 5.7-1.7c.7-.2 1.5-.1 2.1.4l1.4 1.1c1.3-.6 1.7-2.1 1-3.2h-2.3l4.3-8.4L80.1 9l-9.6 24.6 1.6 3.1c.2 0 .3 0 .5.1z"/><path class="st2" d="M59.8 61.4l1.7-.6c.2-1.5-1.1-2.7-2.6-2.5l-1.6.3 2.8-5.2c.4-.7 1-1.1 1.8-1.2l1.5-.1.4-1.1c-.1-1-.9-1.9-2-2l-1.6-.1 4-4.3c.5-.6 1.3-.8 2-.7l.3.1 1.1-2.8c-.2-.2-.4-.3-.7-.4l-1.5-.8 3.4-2.1 1.7-4.4L60.6 14 47.1 40.8l1.1 2.8h3.5l-2 3.9 5.8 14.8h3.2c.2-.4.6-.7 1.1-.9z"/><path class="st1" d="M67.9 44c.7-1 .5-2.3-.3-3l-1.1 2.8 1.4.2z"/><path class="st2" d="M67.9 44c.7-1 .5-2.3-.3-3l-1.1 2.8 1.4.2z"/><path class="st1" d="M63.6 52c.1-.4.2-.7.1-1.1l-.4 1.1h.3z"/><path class="st2" d="M63.6 52c.1-.4.2-.7.1-1.1l-.4 1.1h.3z"/><path class="st1" d="M70.5 36.9c.5-.3 1.1-.4 1.7-.3l-1.6-3.1-1.7 4.4 1.6-1z"/><path class="st2" d="M70.5 36.9c.5-.3 1.1-.4 1.7-.3l-1.6-3.1-1.7 4.4 1.6-1zM87.7 27.9c.8 0 1.5.3 1.9.9l1 1.4c1.5-.2 2.4-1.8 1.7-3.2l-.7-1.4 5.8 1.3c.7.2 1.3.7 1.6 1.4l.6 1.7c1.5.2 2.7-1.1 2.5-2.6l-.3-1.6 1.9 1 2.4-6.1L95.7 0 84.9 21.2l2.6 6.7h.2z"/><path class="st1" d="M107.2 28.7c.4.2.7.5.9.9h2.6l-4.5-8.8-2.4 6.1 3.4 1.8z"/><path class="st2" d="M107.2 28.7c.4.2.7.5.9.9h2.6l-4.5-8.8-2.4 6.1 3.4 1.8z"/><path class="st1" d="M83 29.6c-.1-.1-.1-.2-.2-.3l-1-1.2 5.8-.2-2.6-6.7-4.3 8.4H83z"/><path class="st2" d="M83 29.6c-.1-.1-.1-.2-.2-.3l-1-1.2 5.8-.2-2.6-6.7-4.3 8.4H83z"/><path class="st1" d="M49.7 47.5l-1.5-3.9h-2.6l1.5-2.8-4.9-12.4-10 25.6 4.1 8.4h19.2v-.1H42.2z"/><path class="st2" d="M48.2 43.6l-1.1-2.8-1.5 2.8z"/><path class="st1" d="M48.2 43.6l-1.1-2.8-1.5 2.8z"/><path class="st2" d="M42.2 62.3h13.3l-5.8-14.8z"/><path class="st1" d="M42.2 62.3h13.3l-5.8-14.8z"/><path class="st2" d="M26.8 42.8l-9.5 19.6h11.6l3.3-8.4z"/><path class="st1" d="M28.9 62.4h7.4L32.2 54z"/><path class="st2" d="M28.9 62.4h7.4L32.2 54z"/><path fill="#fff" d="M95.5 48.3z"/><path class="st2" d="M95.7 56.6c-3.6 0-6.7 2.4-7.7 5.8h15.3c-.9-3.4-4-5.8-7.6-5.8z"/><path class="st4" d="M0 81.5h6.3v12.9l9.9-12.9h5.4v23.1h-6.3V91.8l-9.9 12.9H0V81.5zM33.1 88.4c-1.3 1.3-1.9 2.8-1.9 4.7s.6 3.5 1.9 4.7 2.8 1.9 4.7 1.9c1.2 0 2.3-.2 3.3-.7s1.8-1 2.3-1.5l.7-.7 3.6 4c-.1.1-.2.3-.4.5s-.6.6-1.2 1.1c-.6.5-1.3 1-2 1.4-.7.4-1.6.8-2.8 1.1-1.2.3-2.4.5-3.6.5-3.6 0-6.6-1.2-9.1-3.6-2.5-2.4-3.7-5.3-3.7-8.6s1.2-6.2 3.7-8.6c2.5-2.4 5.5-3.6 9.1-3.6 1.2 0 2.4.2 3.5.5s2 .7 2.8 1.2c.7.5 1.4.9 1.9 1.4.5.5.9.8 1.2 1.2l.4.5-3.8 4-.3-.3-.7-.7-1.2-.9c-.4-.3-1-.5-1.7-.7-.7-.2-1.4-.3-2.1-.3-1.7-.4-3.3.2-4.6 1.5zM49.5 81.5h19.1v5.6h-6.4v17.5h-6.3V87.2h-6.4v-5.7zM71.4 81.5h10.4c2.5 0 4.6.8 6.2 2.3 1.6 1.5 2.4 3.5 2.4 5.8s-.8 4.3-2.4 5.8c-1.6 1.5-3.7 2.3-6.2 2.3h-4.1v6.9h-6.3V81.5zm10 5.7h-3.8v4.9h3.8c.7 0 1.4-.2 1.9-.7s.8-1.1.8-1.7c0-.7-.3-1.2-.8-1.7-.5-.6-1.2-.8-1.9-.8zM105.6 99.7H98l-1.6 4.9h-6.8l8.7-23.1h6.9l8.8 23.1h-6.8l-1.6-4.9zm-1.6-4.9l-2.1-6.8-2.1 6.8h4.2zM144.1 81.5v23.1h-6.3V87.2h-5.3v1.6c0 2.6-.1 4.8-.4 6.7-.3 1.9-.6 3.5-1.1 4.7-.5 1.2-1.1 2.2-1.8 3-.7.8-1.5 1.3-2.3 1.6-.8.3-1.7.5-2.7.5-.5 0-1.1-.1-1.7-.2-.6-.1-1-.2-1.2-.3l-.4-.2v-5.8c.5.2 1 .3 1.5.3.6 0 1.1-.1 1.5-.4.4-.3.8-.8 1.2-1.5.4-.7.6-1.8.8-3.2.2-1.4.3-3.2.3-5.3v-7.3h17.9zM155.1 99.4H167v5.3h-18.1V81.5h17.8v5.3h-11.6v3.6h8.9v5h-8.9v4zM177 88.4c-1.3 1.3-1.9 2.8-1.9 4.7s.6 3.5 1.9 4.7 2.8 1.9 4.7 1.9c1.2 0 2.3-.2 3.3-.7 1-.5 1.8-1 2.3-1.5l.7-.7 3.6 4c-.1.1-.2.3-.4.5s-.6.6-1.2 1.1c-.6.5-1.3 1-2 1.4-.7.4-1.6.8-2.8 1.1-1.2.3-2.4.5-3.6.5-3.6 0-6.6-1.2-9.1-3.6-2.5-2.4-3.7-5.3-3.7-8.6s1.2-6.2 3.7-8.6c2.5-2.4 5.5-3.6 9.1-3.6 1.2 0 2.4.2 3.5.5s2 .7 2.8 1.2c.7.5 1.4.9 1.9 1.4.5.5.9.8 1.2 1.2l.4.5-3.8 4-.3-.3-.7-.7-1.2-.9c-.4-.3-1-.5-1.7-.7-.7-.2-1.4-.3-2.1-.3-1.8-.4-3.3.2-4.6 1.5z"/></svg>