<svg xmlns="http://www.w3.org/2000/svg" viewBox="0 0 193.775 106.101">
  <path fill="none" d="m140.419 43.635 1.977 3.899 1.526-3.899zm-87.657 0h-3.503l1.526 3.899z"/>
  <path fill="#8DBC1B" d="M109.13 29.605c.139.259.24.538.268.84l.16 1.75.035.014c1.401.545 2.936-.38 3.069-1.878l.139-1.57 4.328 4.035c.552.515.808 1.274.68 2.018l-.3 1.736.027.02c.745.546 1.68.567 2.411.179l1.635-3.224-9.614-24.568-4.644 11.868 4.452 8.78h-2.645z"/>
  <path fill="#499E12" d="M124.668 39.087c.4.64.45 1.439.134 2.124l-.114.249.863 2.206c.79.108 1.621-.19 2.13-.916l.91-1.295 1.73 5.66a2.231 2.231 0 0 1-.42 2.086l-1.124 1.35.015.035c.606 1.376 2.344 1.808 3.497.843l1.21-1.012.206 5.914a2.239 2.239 0 0 1-.946 1.907l-1.432 1.011.005.03c.228 1.49 1.795 2.362 3.161 1.727l1.426-.662-.457 1.977h1.147l5.787-14.787-1.977-3.899h3.503l1.115-2.848-13.569-26.757-9.886 19.495.654 1.671 2.432 3.89z"/>
  <path fill="#8DBC1B" d="m120.99 35.553.542-1.484.704 1.127-.654-1.671-1.635 3.224c.461-.245.843-.65 1.042-1.196z"/>
  <path fill="#499E12" d="m120.99 35.553.542-1.484.704 1.127-.654-1.671-1.635 3.224c.461-.245.843-.65 1.042-1.196z"/>
  <path fill="#8DBC1B" d="M124.087 42.844c.386.48.915.746 1.464.822l-.863-2.206-.625 1.353.024.03z"/>
  <path fill="#499E12" d="M124.087 42.844c.386.48.915.746 1.464.822l-.863-2.206-.625 1.353.024.03z"/>
  <path fill="#8DBC1B" d="m143.922 43.635-1.526 3.899 7.499 14.787h-13.286l-.021.055h19.239l4.087-8.4-10.019-25.603-4.858 12.414 1.444 2.848z"/>
  <path fill="#499E12" d="m142.396 47.534-5.787 14.787h13.286z"/>
  <path fill="#8DBC1B" d="m142.396 47.534-5.787 14.787h13.286z"/>
  <path fill="#499E12" d="m146.481 43.635-1.444-2.848-1.115 2.848z"/>
  <path fill="#8DBC1B" d="m146.481 43.635-1.444-2.848-1.115 2.848z"/>
  <path fill="#499E12" d="m174.838 62.376-9.505-19.535-5.419 11.135 3.287 8.4z"/>
  <path fill="#8DBC1B" d="m163.201 62.376-3.287-8.4-4.087 8.4z"/>
  <path fill="#499E12" d="m163.201 62.376-3.287-8.4-4.087 8.4z"/>
  <path fill="#8DBC1B" d="m73.648 36.78 1.601.739.03-.024c1.17-.942 1.136-2.733-.094-3.597l-1.294-.908 5.659-1.73a2.239 2.239 0 0 1 2.087.42l1.35 1.125.035-.015a2.24 2.24 0 0 0 1.047-3.185H81.75l4.257-8.395-4.795-12.253-9.614 24.568 1.574 3.103c.162.035.322.08.476.152z"/>
  <path fill="#499E12" d="m60.837 61.439 1.65-.608.004-.04c.162-1.493-1.127-2.735-2.608-2.476l-1.553.272 2.777-5.225a2.239 2.239 0 0 1 1.773-1.178l1.469-.135.44-1.125a2.229 2.229 0 0 0-2.022-2.004l-1.57-.14 4.035-4.327a2.24 2.24 0 0 1 2.018-.68l.317.054 1.103-2.82a2.197 2.197 0 0 0-.683-.416l-1.483-.541 3.363-2.102 1.731-4.423-9.886-19.495-13.568 26.757 1.115 2.848h3.503l-1.977 3.9L56.57 62.32h3.186a2.188 2.188 0 0 1 1.08-.882z"/>
  <path fill="#8DBC1B" d="M69.004 44.047a2.25 2.25 0 0 0-.334-3.04l-1.103 2.82 1.419.245.018-.025z"/>
  <path fill="#499E12" d="M69.004 44.047a2.25 2.25 0 0 0-.334-3.04l-1.103 2.82 1.419.245.018-.025z"/>
  <path fill="#8DBC1B" d="M64.644 51.989c.138-.355.18-.718.145-1.065l-.44 1.125.282-.025.013-.035z"/>
  <path fill="#499E12" d="M64.644 51.989c.138-.355.18-.718.145-1.065l-.44 1.125.282-.025.013-.035z"/>
  <path fill="#8DBC1B" d="M71.522 36.914a2.233 2.233 0 0 1 1.65-.286l-1.574-3.103-1.73 4.423 1.654-1.034z"/>
  <path fill="#499E12" d="M71.522 36.914a2.233 2.233 0 0 1 1.65-.286l-1.574-3.103-1.73 4.423 1.654-1.034zm17.245-9.038a2.239 2.239 0 0 1 1.907.946l1.01 1.432.031-.005c1.49-.227 2.362-1.794 1.727-3.16l-.663-1.426 5.766 1.33c.736.17 1.337.7 1.598 1.408l.608 1.65.039.004c1.494.162 2.735-1.127 2.476-2.607l-.272-1.554 1.942 1.032 2.388-6.1L96.763 0 86.007 21.21l2.611 6.671.149-.005z"/>
  <path fill="#8DBC1B" d="M108.22 28.672c.4.212.704.545.91.933h2.646l-4.452-8.78-2.388 6.101 3.283 1.746z"/>
  <path fill="#499E12" d="M108.22 28.672c.4.212.704.545.91.933h2.646l-4.452-8.78-2.388 6.101 3.283 1.746z"/>
  <path fill="#8DBC1B" d="M84.069 29.605c-.063-.106-.122-.214-.204-.313l-1.012-1.209 5.765-.202-2.61-6.671-4.258 8.395h2.319z"/>
  <path fill="#499E12" d="M84.069 29.605c-.063-.106-.122-.214-.204-.313l-1.012-1.209 5.765-.202-2.61-6.671-4.258 8.395h2.319z"/>
  <path fill="#8DBC1B" d="m50.785 47.534-1.526-3.899h-2.56l1.445-2.848-4.858-12.414-10.02 25.603 4.088 8.4h19.238l-.021-.055H43.286z"/>
  <path fill="#499E12" d="m49.259 43.635-1.115-2.848-1.445 2.848z"/>
  <path fill="#8DBC1B" d="m49.259 43.635-1.115-2.848-1.445 2.848z"/>
  <path fill="#499E12" d="M43.286 62.321h13.285l-5.786-14.787z"/>
  <path fill="#8DBC1B" d="M43.286 62.321h13.285l-5.786-14.787z"/>
  <path fill="#499E12" d="m27.848 42.841-9.506 19.535h11.637l3.287-8.4z"/>
  <path fill="#8DBC1B" d="M29.979 62.376h7.375l-4.088-8.4z"/>
  <path fill="#499E12" d="M29.979 62.376h7.375l-4.088-8.4z"/>
  <path fill="#FFF" d="M96.575 48.291h.03l-.015-.038z"/>
  <path fill="#499E12" d="M96.763 56.598c-3.642 0-6.707 2.443-7.662 5.778h15.324c-.955-3.335-4.02-5.778-7.662-5.778z"/>
  <path fill="#443A31" stroke="#443A31" stroke-miterlimit="10" stroke-width="1.3" d="M21.638 81.147v24.04h-5.61V91.723c0-.627.019-1.29.058-1.988s.112-1.445.222-2.237a18.525 18.525 0 0 1-.825 1.956c-.297.6-.588 1.124-.874 1.576l-7.31 12.49c-.12.198-.267.396-.437.595s-.36.377-.569.536c-.21.159-.435.289-.677.387a1.993 1.993 0 0 1-.758.149H.65v-24.04h5.61v13.447c0 .627-.017 1.29-.05 1.988-.033.699-.11 1.444-.23 2.236.252-.693.527-1.34.824-1.939s.589-1.125.875-1.576l7.31-12.49c.12-.198.266-.396.436-.594s.36-.377.57-.536c.209-.16.434-.29.676-.388.242-.1.495-.148.76-.148h4.207zm22.34 17.819c.132 0 .264.026.396.074.132.05.258.135.38.256l2.21 2.326a9.18 9.18 0 0 1-3.637 2.864c-1.458.643-3.182.965-5.173.965-1.826 0-3.462-.311-4.909-.932-1.447-.622-2.673-1.48-3.68-2.574s-1.779-2.393-2.318-3.895c-.539-1.5-.808-3.132-.808-4.891 0-1.793.291-3.44.874-4.943.583-1.5 1.403-2.796 2.46-3.886 1.055-1.088 2.32-1.935 3.794-2.54 1.474-.605 3.096-.908 4.867-.908.902 0 1.752.08 2.55.24.797.16 1.542.38 2.235.66a10.213 10.213 0 0 1 3.465 2.301l-1.88 2.525a2.371 2.371 0 0 1-.43.42c-.164.128-.396.19-.693.19-.198 0-.385-.044-.56-.132s-.364-.195-.562-.321a78.69 78.69 0 0 0-.651-.413 4.993 4.993 0 0 0-.842-.412 7 7 0 0 0-1.139-.322 7.775 7.775 0 0 0-1.526-.132c-.924 0-1.768.17-2.532.511a5.516 5.516 0 0 0-1.98 1.494c-.556.654-.985 1.458-1.287 2.409-.303.95-.454 2.038-.454 3.259 0 1.231.168 2.326.503 3.283s.792 1.762 1.37 2.417a5.8 5.8 0 0 0 2.02 1.493c.77.342 1.596.512 2.476.512.506 0 .967-.025 1.386-.075.418-.048.809-.131 1.171-.247s.704-.27 1.023-.462c.32-.192.644-.437.974-.734a1.93 1.93 0 0 1 .429-.272c.154-.072.313-.108.478-.108zm24.189-13.397h-6.765v19.618h-5.577V85.569H49.06v-4.422h19.107v4.422zm12.787-4.422c1.694 0 3.149.2 4.364.601 1.216.403 2.217.955 3.003 1.659.787.704 1.367 1.535 1.741 2.492s.561 1.99.561 3.101c0 1.2-.193 2.3-.577 3.3-.386 1.001-.974 1.86-1.766 2.574s-1.796 1.274-3.011 1.675-2.654.603-4.315.603H78.05v8.035h-5.577v-24.04h8.481zm0 11.797c1.452 0 2.497-.347 3.135-1.04.638-.693.957-1.66.957-2.904 0-.55-.083-1.05-.248-1.502a3.067 3.067 0 0 0-.75-1.163c-.336-.324-.76-.574-1.27-.75-.512-.175-1.12-.264-1.824-.264H78.05v7.623h2.904zm33.875 12.243h-4.324c-.484 0-.874-.112-1.171-.338a2.146 2.146 0 0 1-.676-.866l-1.42-4.192h-9.14l-1.42 4.192c-.12.307-.338.585-.651.833-.314.247-.701.37-1.164.37h-4.356l9.307-24.04h5.708l9.307 24.04zm-8.862-9.19-2.227-6.585c-.164-.418-.34-.909-.527-1.476a45.05 45.05 0 0 1-.562-1.84 25.93 25.93 0 0 1-.527 1.865 27.218 27.218 0 0 1-.529 1.485l-2.21 6.55h6.582zm41.728 9.19h-5.61v-19.9h-5.313c-.165 2.949-.395 5.493-.692 7.632s-.656 3.957-1.074 5.453-.89 2.706-1.419 3.63c-.527.924-1.105 1.642-1.732 2.154s-1.3.855-2.02 1.03a9.549 9.549 0 0 1-2.27.265c-.968 0-1.655-.085-2.062-.256-.407-.17-.61-.42-.61-.75v-3.383h1.385c.242 0 .495-.022.76-.067a2.04 2.04 0 0 0 .808-.345c.275-.188.547-.462.817-.825s.528-.87.775-1.519c.247-.648.484-1.457.71-2.425.225-.968.429-2.142.61-3.523a82.61 82.61 0 0 0 .47-4.843c.132-1.848.226-3.97.281-6.368h16.186v24.04zm11.748-19.751v5.61H167v4.125h-7.557v5.726h9.867v4.29h-15.477v-24.04h15.477v4.289h-9.867zm30.492 13.53c.132 0 .265.026.397.074a1.1 1.1 0 0 1 .379.256l2.21 2.326a9.175 9.175 0 0 1-3.637 2.864c-1.458.643-3.182.965-5.173.965-1.826 0-3.463-.311-4.91-.932-1.446-.622-2.672-1.48-3.678-2.574-1.007-1.095-1.78-2.393-2.318-3.895-.54-1.5-.809-3.132-.809-4.891 0-1.793.291-3.44.874-4.943.583-1.5 1.402-2.796 2.46-3.886 1.055-1.088 2.32-1.935 3.794-2.54 1.474-.605 3.096-.908 4.867-.908.903 0 1.752.08 2.55.24.797.16 1.542.38 2.235.66a10.213 10.213 0 0 1 3.465 2.301l-1.88 2.525a2.368 2.368 0 0 1-.43.42c-.164.128-.396.19-.693.19-.198 0-.384-.044-.56-.132a6.224 6.224 0 0 1-.562-.321 87.822 87.822 0 0 0-.651-.413 5.011 5.011 0 0 0-.842-.412 6.986 6.986 0 0 0-1.139-.322 7.78 7.78 0 0 0-1.526-.132c-.924 0-1.768.17-2.532.511s-1.425.84-1.98 1.494-.985 1.458-1.288 2.409-.453 2.038-.453 3.259c0 1.231.167 2.326.503 3.283s.792 1.762 1.37 2.417a5.81 5.81 0 0 0 2.02 1.493 6.032 6.032 0 0 0 2.476.512c.506 0 .968-.025 1.386-.075a6.28 6.28 0 0 0 1.172-.247c.362-.115.703-.27 1.022-.462s.644-.437.974-.734c.132-.11.274-.201.429-.272s.313-.108.478-.108z"/>
</svg>
