<svg viewBox="0 0 28 28" fill="none" xmlns="http://www.w3.org/2000/svg">
<g clip-path="url(#clip0)">
<path d="M26.1381 14.3627C26.0254 14.1322 26.0254 13.8678 26.1381 13.6373L27.1824 11.501C27.7638 10.3115 27.3031 8.89372 26.1336 8.27319L24.0331 7.15866C23.8064 7.03846 23.6511 6.82452 23.6067 6.57192L23.1959 4.22972C22.9671 2.92565 21.7609 2.04934 20.4502 2.23479L18.0957 2.56783C17.8416 2.60371 17.5903 2.52201 17.406 2.34367L15.6969 0.690367C14.7453 -0.230237 13.2545 -0.230292 12.303 0.690367L10.5939 2.34384C10.4095 2.52222 10.1582 2.60376 9.90413 2.568L7.54969 2.23495C6.23856 2.0494 5.03271 2.92582 4.80395 4.22989L4.39314 6.57198C4.34879 6.82463 4.19342 7.03851 3.96686 7.15877L1.86632 8.2733C0.696781 8.89378 0.236096 10.3117 0.81753 11.5012L1.86178 13.6375C1.97444 13.868 1.97444 14.1323 1.86178 14.3628L0.817475 16.4991C0.236041 17.6886 0.696726 19.1063 1.86627 19.7269L3.9668 20.8414C4.19342 20.9616 4.34879 21.1755 4.39314 21.4281L4.80395 23.7703C5.0122 24.9575 6.03015 25.79 7.20007 25.7899C7.3153 25.7899 7.43222 25.7818 7.54974 25.7652L9.90419 25.4322C10.1581 25.3961 10.4096 25.478 10.594 25.6563L12.303 27.3096C12.7789 27.77 13.3893 28.0001 13.9999 28.0001C14.6104 28 15.2212 27.7699 15.6969 27.3096L17.406 25.6563C17.5904 25.478 17.8417 25.3965 18.0957 25.4322L20.4502 25.7652C21.7615 25.9507 22.9671 25.0744 23.1959 23.7703L23.6068 21.4282C23.6511 21.1755 23.8065 20.9617 24.0331 20.8414L26.1336 19.7269C27.3031 19.1064 27.7638 17.6885 27.1824 16.499L26.1381 14.3627ZM10.7701 6.73287C12.4026 6.73287 13.7308 8.06106 13.7308 9.69358C13.7308 11.3261 12.4026 12.6543 10.7701 12.6543C9.13753 12.6543 7.80934 11.3261 7.80934 9.69358C7.80934 8.06106 9.13753 6.73287 10.7701 6.73287ZM9.24187 19.8999C9.08421 20.0576 8.87755 20.1364 8.67094 20.1364C8.46433 20.1364 8.25761 20.0576 8.1 19.8999C7.78468 19.5846 7.78468 19.0733 8.1 18.758L18.7579 8.10005C19.0732 7.78472 19.5845 7.78472 19.8999 8.10005C20.2152 8.41537 20.2152 8.92664 19.8999 9.24197L9.24187 19.8999ZM17.2297 21.2672C15.5972 21.2672 14.269 19.939 14.269 18.3065C14.269 16.674 15.5972 15.3458 17.2297 15.3458C18.8622 15.3458 20.1904 16.674 20.1904 18.3065C20.1904 19.939 18.8622 21.2672 17.2297 21.2672Z" fill="black"/>
<path d="M17.2296 16.9607C16.4875 16.9607 15.8838 17.5644 15.8838 18.3065C15.8838 19.0485 16.4875 19.6522 17.2296 19.6522C17.9716 19.6522 18.5753 19.0485 18.5753 18.3065C18.5753 17.5644 17.9716 16.9607 17.2296 16.9607Z" fill="black"/>
<path d="M10.7701 8.34778C10.028 8.34778 9.42432 8.95147 9.42432 9.69352C9.42432 10.4356 10.028 11.0393 10.7701 11.0393C11.5121 11.0393 12.1159 10.4356 12.1159 9.69352C12.1158 8.95152 11.5121 8.34778 10.7701 8.34778Z" fill="black"/>
</g>
<defs>
<clipPath id="clip0">
<rect width="28" height="28" fill="white"/>
</clipPath>
</defs>
</svg>
