<svg viewBox="0 0 512 512" xmlns="http://www.w3.org/2000/svg"><path d="M256 92.716c-8.534 0-15.453-6.918-15.453-15.453v-61.81C240.547 6.918 247.466 0 256 0c8.534 0 15.453 6.918 15.453 15.453v61.811c0 8.534-6.919 15.452-15.453 15.452z" fill="#799ea8"/><path d="M256 512c-8.534 0-15.453-6.918-15.453-15.453v-61.811c0-8.534 6.918-15.453 15.453-15.453 8.534 0 15.453 6.918 15.453 15.453v61.811c0 8.535-6.919 15.453-15.453 15.453z" fill="#cfdbe4"/><path d="M174.358 114.592c-7.391 4.267-16.842 1.735-21.109-5.656l-30.905-53.53c-4.267-7.391-1.735-16.842 5.656-21.109 7.391-4.267 16.842-1.735 21.109 5.656l30.905 53.53c4.267 7.391 1.735 16.842-5.656 21.109z" fill="#8eb1bf"/><path d="M384 477.702c-7.391 4.267-16.842 1.735-21.109-5.656l-30.905-53.53c-4.267-7.391-1.735-16.842 5.656-21.109 7.391-4.267 16.842-1.735 21.109 5.656l30.905 53.53c4.267 7.392 1.735 16.842-5.656 21.109z" fill="#e0ebf0"/><path d="M114.592 174.358c-4.267 7.391-13.718 9.923-21.109 5.656l-53.53-30.905c-7.391-4.267-9.923-13.718-5.656-21.109 4.267-7.391 13.718-9.923 21.109-5.656l53.53 30.905c7.391 4.267 9.923 13.718 5.656 21.109z" fill="#8eb1bf"/><path d="M477.703 384c-4.267 7.391-13.718 9.923-21.109 5.656l-53.53-30.905c-7.391-4.267-9.923-13.718-5.656-21.109 4.267-7.391 13.718-9.923 21.109-5.656l53.53 30.905c7.39 4.267 9.923 13.718 5.656 21.109z" fill="#e0ebf0"/><g><path d="M92.716 256c0 8.534-6.918 15.453-15.453 15.453h-61.81C6.918 271.453 0 264.534 0 256c0-8.534 6.918-15.453 15.453-15.453h61.811c8.534 0 15.452 6.919 15.452 15.453z" fill="#8eb1bf"/><path d="M512 256c0 8.534-6.918 15.453-15.453 15.453h-61.811c-8.534 0-15.453-6.918-15.453-15.453 0-8.534 6.918-15.453 15.453-15.453h61.811c8.535 0 15.453 6.919 15.453 15.453z" fill="#e0ebf0"/></g><g><path d="M114.592 337.642c4.267 7.391 1.735 16.842-5.656 21.109l-53.53 30.905c-7.391 4.267-16.842 1.735-21.109-5.656-4.267-7.391-1.735-16.842 5.656-21.109l53.53-30.905c7.391-4.267 16.842-1.735 21.109 5.656z" fill="#cfdbe4"/></g><g><path d="M174.358 397.408c7.391 4.267 9.923 13.718 5.656 21.109l-30.905 53.53c-4.267 7.391-13.718 9.923-21.109 5.656-7.391-4.267-9.923-13.718-5.656-21.109l30.905-53.53c4.267-7.391 13.718-9.923 21.109-5.656z" fill="#cfdbe4"/><path d="M384 34.297c7.391 4.267 9.923 13.718 5.656 21.109l-30.905 53.53c-4.267 7.391-13.718 9.923-21.109 5.656-7.391-4.267-9.923-13.718-5.656-21.109l30.905-53.53c4.267-7.39 13.718-9.923 21.109-5.656z" fill="#658b96"/></g></svg>