<svg viewBox="0 0 125 67" fill="none" xmlns="http://www.w3.org/2000/svg">
<g clip-path="url(#clip0)">
<path d="M70.5244 18.8338C70.5897 19.0247 70.6549 19.152 70.7201 19.3428L70.8506 20.4881C71.764 20.8063 72.7426 20.2336 72.8731 19.2792L72.9383 18.2612L75.7436 20.8063C76.1351 21.1244 76.2655 21.6334 76.2003 22.0788L76.0046 23.1605C76.4613 23.4786 77.1137 23.5423 77.5703 23.2878L78.6142 21.2517L72.3511 5.7265L69.3501 13.2982L72.2859 18.8974H70.5244V18.8338Z" fill="#8DBC1B"/>
<path d="M80.6367 24.8785C80.8977 25.2602 80.9629 25.7692 80.7019 26.2146L80.6367 26.3419L81.2239 27.7417C81.7458 27.8053 82.2677 27.6145 82.5939 27.1691L83.1811 26.3419L84.2901 29.9687C84.4206 30.4141 84.3554 30.9231 84.0292 31.3049L83.3115 32.1956C83.703 33.0864 84.8121 33.3409 85.5949 32.7047L86.3778 32.0684L86.5083 35.8224C86.5083 36.3314 86.3126 36.7768 85.9211 37.0314L85.0078 37.6676C85.1383 38.622 86.1821 39.1947 87.0955 38.7493L88.0088 38.3039L87.6826 39.5765H88.4003L92.1842 30.1596L90.8794 27.6781H93.1628L93.8804 25.8965L85.073 8.9079L78.6143 21.3153L79.0709 22.397L80.6367 24.8785Z" fill="#499E12"/>
<path d="M78.2228 22.6515L78.549 21.697L79.0056 22.3969L78.549 21.3153L77.5051 23.3514C77.8313 23.2241 78.0923 22.9696 78.2228 22.6515Z" fill="#8DBC1B"/>
<path d="M78.2228 22.6515L78.549 21.697L79.0056 22.3969L78.549 21.3153L77.5051 23.3514C77.8313 23.2241 78.0923 22.9696 78.2228 22.6515Z" fill="#499E12"/>
<path d="M80.2454 27.2327C80.5063 27.5508 80.8325 27.6781 81.224 27.7417L80.6368 26.3419L80.2454 27.2327Z" fill="#8DBC1B"/>
<path d="M80.2454 27.2327C80.5063 27.5508 80.8325 27.6781 81.224 27.7417L80.6368 26.3419L80.2454 27.2327Z" fill="#499E12"/>
<path d="M93.2282 27.7417L92.1843 30.2232L97.0773 39.6401H88.4004V39.7037H100.992L103.601 34.359L97.0773 18.0703L93.9458 25.9601L94.8592 27.7417H93.2282Z" fill="#8DBC1B"/>
<path d="M92.1843 30.2232L88.4004 39.6401H97.0773L92.1843 30.2232Z" fill="#499E12"/>
<path d="M92.1843 30.2232L88.4004 39.6401H97.0773L92.1843 30.2232Z" fill="#8DBC1B"/>
<path d="M94.859 27.7417L93.9457 25.9601L93.228 27.7417H94.859Z" fill="#499E12"/>
<path d="M94.859 27.7417L93.9457 25.9601L93.228 27.7417H94.859Z" fill="#8DBC1B"/>
<path d="M113.387 39.7037L107.19 27.2327L103.601 34.359L105.754 39.7037H113.387Z" fill="#499E12"/>
<path d="M105.754 39.7037L103.601 34.359L100.992 39.7037H105.754Z" fill="#8DBC1B"/>
<path d="M105.754 39.7037L103.601 34.359L100.992 39.7037H105.754Z" fill="#499E12"/>
<path d="M47.3642 23.415L48.408 23.8604C49.1909 23.2878 49.1257 22.1425 48.3428 21.5698L47.4947 20.9972L51.2133 19.9155C51.67 19.7882 52.1919 19.8519 52.5834 20.17L53.4968 20.8699C54.3449 20.4881 54.6058 19.5337 54.1492 18.8338H52.6486L55.454 13.4891L52.2572 5.7265L45.9941 21.3789L47.038 23.3514C47.1685 23.3514 47.2337 23.3514 47.3642 23.415Z" fill="#8DBC1B"/>
<path d="M39.0135 39.0674L40.1226 38.6857C40.2531 37.7313 39.405 36.9677 38.4264 37.095L37.3825 37.2859L39.2092 33.9772C39.4702 33.5318 39.8616 33.2773 40.3836 33.2137L41.3622 33.1501L41.6231 32.4502C41.5579 31.8139 41.036 31.2412 40.3183 31.1776L39.2745 31.114L41.8841 28.378C42.2103 27.9962 42.7322 27.869 43.1889 27.9326L43.3846 27.9962L44.1022 26.2146C43.9718 26.0874 43.8413 26.0238 43.6456 25.9601L42.667 25.4511L44.8851 24.1149L45.9942 21.3153L39.5354 8.9079L30.728 25.9601L31.4457 27.7417H33.7291L32.4243 30.2232L36.2082 39.6401H38.2959C38.4264 39.3856 38.6873 39.1947 39.0135 39.0674Z" fill="#499E12"/>
<path d="M44.2979 27.9962C44.7546 27.3599 44.6241 26.5328 44.1022 26.0874L43.3845 27.869L44.2979 27.9962Z" fill="#8DBC1B"/>
<path d="M44.2979 27.9962C44.7546 27.3599 44.6241 26.5328 44.1022 26.0874L43.3845 27.869L44.2979 27.9962Z" fill="#499E12"/>
<path d="M41.4926 33.0864C41.5578 32.8319 41.6231 32.641 41.5578 32.3865L41.2969 33.0864H41.4926Z" fill="#8DBC1B"/>
<path d="M41.4926 33.0864C41.5578 32.8319 41.6231 32.641 41.5578 32.3865L41.2969 33.0864H41.4926Z" fill="#499E12"/>
<path d="M45.9943 23.4786C46.3205 23.2877 46.7119 23.2241 47.1034 23.2877L46.0595 21.3153L44.9504 24.1149L45.9943 23.4786Z" fill="#8DBC1B"/>
<path d="M45.9943 23.4786C46.3205 23.2877 46.7119 23.2241 47.1034 23.2877L46.0595 21.3153L44.9504 24.1149L45.9943 23.4786Z" fill="#499E12"/>
<path d="M57.2156 17.7521C57.7376 17.7521 58.1942 17.943 58.4552 18.3248L59.1076 19.2156C60.0862 19.0883 60.6734 18.0703 60.2167 17.1795L59.76 16.2887L63.5439 17.1159C64.0006 17.2431 64.392 17.5613 64.5878 18.0066L64.9792 19.0883C65.9578 19.2156 66.7407 18.3884 66.6102 17.434L66.4145 16.416L67.654 17.0522L69.2198 13.1709L62.4348 0L55.3889 13.4891L57.0852 17.7521H57.2156Z" fill="#499E12"/>
<path d="M69.9374 18.2611C70.1984 18.3884 70.3941 18.5793 70.5246 18.8338H72.2208L69.285 13.2346L67.7192 17.1158L69.9374 18.2611Z" fill="#8DBC1B"/>
<path d="M69.9374 18.2611C70.1984 18.3884 70.3941 18.5793 70.5246 18.8338H72.2208L69.285 13.2346L67.7192 17.1158L69.9374 18.2611Z" fill="#499E12"/>
<path d="M54.1492 18.8338C54.084 18.7702 54.084 18.7065 54.0187 18.6429L53.3663 17.8794L57.1502 17.7521L55.454 13.4891L52.6487 18.8338H54.1492Z" fill="#8DBC1B"/>
<path d="M54.1492 18.8338C54.084 18.7702 54.084 18.7065 54.0187 18.6429L53.3663 17.8794L57.1502 17.7521L55.454 13.4891L52.6487 18.8338H54.1492Z" fill="#499E12"/>
<path d="M32.4243 30.2232L31.4457 27.7417H29.7495L30.7281 25.9601L27.5313 18.0703L21.0073 34.359L23.6822 39.7037H36.2083V39.6401H27.5313L32.4243 30.2232Z" fill="#8DBC1B"/>
<path d="M31.4458 27.7417L30.7281 25.9601L29.7495 27.7417H31.4458Z" fill="#499E12"/>
<path d="M31.4458 27.7417L30.7281 25.9601L29.7495 27.7417H31.4458Z" fill="#8DBC1B"/>
<path d="M27.5312 39.6401H36.2082L32.4243 30.2232L27.5312 39.6401Z" fill="#499E12"/>
<path d="M27.5312 39.6401H36.2082L32.4243 30.2232L27.5312 39.6401Z" fill="#8DBC1B"/>
<path d="M17.4844 27.2327L11.2866 39.7037H18.8545L21.0074 34.359L17.4844 27.2327Z" fill="#499E12"/>
<path d="M18.8545 39.7037H23.6823L21.0074 34.359L18.8545 39.7037Z" fill="#8DBC1B"/>
<path d="M18.8545 39.7037H23.6823L21.0074 34.359L18.8545 39.7037Z" fill="#499E12"/>
<path d="M62.4349 36.0133C60.0862 36.0133 58.0638 37.5404 57.4114 39.7037H67.3931C66.806 37.5404 64.7835 36.0133 62.4349 36.0133Z" fill="#499E12"/>
<path d="M0 51.8566H4.11013V60.0646L10.5689 51.8566H14.0919V66.5546H9.98173V58.4103L3.52296 66.6182H0V51.8566Z" fill="#443A31"/>
<path d="M21.5946 56.2469C20.7464 57.0741 20.355 58.0285 20.355 59.2374C20.355 60.4463 20.7464 61.4644 21.5946 62.2279C22.4427 62.9914 23.4213 63.4368 24.6608 63.4368C25.4437 63.4368 26.1614 63.3096 26.8138 62.9914C27.4662 62.6733 27.9881 62.3552 28.3143 62.037L28.771 61.5916L31.1196 64.1367C31.0544 64.2004 30.9891 64.3276 30.8587 64.4549C30.7282 64.5821 30.4672 64.8366 30.0758 65.1548C29.6843 65.4729 29.2276 65.7911 28.771 66.0456C28.3143 66.3001 27.7271 66.5546 26.9442 66.7455C26.1614 66.9364 25.3785 67.0636 24.5956 67.0636C22.247 67.0636 20.2898 66.3001 18.6588 64.773C17.0278 63.246 16.2449 61.4007 16.2449 59.301C16.2449 57.2013 17.0278 55.3561 18.6588 53.829C20.2898 52.302 22.247 51.5385 24.5956 51.5385C25.3785 51.5385 26.1614 51.6657 26.879 51.8566C27.5966 52.0475 28.1838 52.302 28.7057 52.6201C29.1624 52.9383 29.6191 53.1928 29.9453 53.5109C30.2715 53.829 30.5324 54.0199 30.7282 54.2744L30.9891 54.5926L28.51 57.1377C28.4448 57.0741 28.3795 57.0104 28.3143 56.9468C28.249 56.8832 28.0533 56.6923 27.8576 56.5014C27.5966 56.3105 27.3357 56.1196 27.0747 55.9288C26.8138 55.7379 26.4223 55.6106 25.9656 55.4834C25.509 55.3561 25.0523 55.2925 24.5956 55.2925C23.4865 55.038 22.4427 55.4197 21.5946 56.2469Z" fill="#443A31"/>
<path d="M32.2939 51.8566H44.7548V55.4198H40.5794V66.5546H36.4693V55.4834H32.2939V51.8566Z" fill="#443A31"/>
<path d="M46.5815 51.8566H53.3665C54.9975 51.8566 56.3675 52.3656 57.4114 53.32C58.4552 54.2745 58.9771 55.547 58.9771 57.0104C58.9771 58.4739 58.4552 59.7464 57.4114 60.7009C56.3675 61.6553 54.9975 62.1643 53.3665 62.1643H50.6917V66.5546H46.5815V51.8566ZM53.1055 55.4834H50.6264V58.6011H53.1055C53.5622 58.6011 54.0189 58.4739 54.3451 58.1557C54.6713 57.8376 54.867 57.4558 54.867 57.0741C54.867 56.6287 54.6713 56.3105 54.3451 55.9924C54.0189 55.6106 53.5622 55.4834 53.1055 55.4834Z" fill="#443A31"/>
<path d="M68.8935 63.4368H63.9352L62.8914 66.5546H58.4551L64.131 51.8566H68.6325L74.3737 66.5546H69.9373L68.8935 63.4368ZM67.8496 60.3191L66.4796 55.9924L65.1096 60.3191H67.8496Z" fill="#443A31"/>
<path d="M94.0109 51.8566V66.5546H89.9008V55.4834H86.4431V56.5014C86.4431 58.1557 86.3779 59.5556 86.1821 60.7645C85.9864 61.9734 85.7907 62.9914 85.4645 63.755C85.1383 64.5185 84.7468 65.1548 84.2902 65.6638C83.8335 66.1728 83.3116 66.491 82.7896 66.6819C82.2677 66.8727 81.6806 67 81.0282 67C80.702 67 80.3105 66.9364 79.9191 66.8727C79.5276 66.8091 79.2667 66.7455 79.1362 66.6819L78.8752 66.5546V62.8642C79.2014 62.9914 79.5276 63.0551 79.8538 63.0551C80.2453 63.0551 80.5715 62.9914 80.8324 62.8006C81.0934 62.6097 81.3544 62.2915 81.6153 61.8461C81.8763 61.4008 82.0068 60.7008 82.1372 59.8101C82.2677 58.9193 82.333 57.774 82.333 56.4378V51.793H94.0109V51.8566Z" fill="#443A31"/>
<path d="M101.187 63.246H108.951V66.6182H97.1426V51.8566H108.755V55.2289H101.187V57.5195H106.994V60.7009H101.187V63.246Z" fill="#443A31"/>
<path d="M115.475 56.2469C114.627 57.0741 114.235 58.0285 114.235 59.2374C114.235 60.4463 114.627 61.4644 115.475 62.2279C116.323 62.9914 117.302 63.4368 118.541 63.4368C119.324 63.4368 120.042 63.3096 120.694 62.9914C121.347 62.6733 121.868 62.3552 122.195 62.037L122.651 61.5916L125 64.1367C124.935 64.2004 124.869 64.3276 124.739 64.4549C124.609 64.5821 124.348 64.8366 123.956 65.1548C123.565 65.4729 123.108 65.7911 122.651 66.0456C122.195 66.3001 121.607 66.5546 120.825 66.7455C120.042 66.9364 119.259 67.0636 118.476 67.0636C116.127 67.0636 114.17 66.3001 112.539 64.773C110.908 63.246 110.125 61.4007 110.125 59.301C110.125 57.2013 110.908 55.3561 112.539 53.829C114.17 52.302 116.127 51.5385 118.476 51.5385C119.259 51.5385 120.042 51.6657 120.759 51.8566C121.477 52.0475 122.064 52.302 122.586 52.6201C123.043 52.9383 123.499 53.1928 123.826 53.5109C124.152 53.829 124.413 54.0199 124.609 54.2744L124.869 54.5926L122.39 57.1377C122.325 57.0741 122.26 57.0104 122.195 56.9468C122.129 56.8832 121.934 56.6923 121.738 56.5014C121.477 56.3105 121.216 56.1196 120.955 55.9288C120.694 55.7379 120.303 55.6106 119.846 55.4834C119.389 55.3561 118.933 55.2925 118.476 55.2925C117.302 55.038 116.323 55.4197 115.475 56.2469Z" fill="#443A31"/>
</g>
<defs>
<clipPath id="clip0">
<rect width="125" height="67" fill="white"/>
</clipPath>
</defs>
</svg>
