<svg viewBox="0 0 28 28" fill="none" xmlns="http://www.w3.org/2000/svg">
<path d="M24.8595 4.45632L14.3157 0.0631126C14.1138 -0.0209968 13.8867 -0.0209968 13.6847 0.0631126L3.141 4.45632C2.83535 4.58369 2.63623 4.88239 2.63623 5.21353V12.5514C2.63623 19.5525 7.09868 25.7438 13.7404 27.9577C13.7441 27.9589 13.7477 27.9601 13.7514 27.9613C13.9133 28.0129 14.0872 28.0129 14.2492 27.9613C14.2528 27.9601 14.2565 27.9589 14.2601 27.9577C20.9019 25.7438 25.3643 19.5525 25.3643 12.5515V5.21353C25.3643 4.88239 25.1652 4.58369 24.8595 4.45632ZM20.7308 11.9441L13.7016 18.9733C13.3816 19.2933 12.862 19.2937 12.5416 18.9733L7.70904 14.1407C7.38868 13.8204 7.38868 13.301 7.70904 12.9806L10.1942 10.4954C10.5142 10.1753 11.0339 10.175 11.3543 10.4954L13.1216 12.2627L17.0855 8.29883C17.4058 7.97847 17.9252 7.97847 18.2456 8.29883L20.7308 10.784C21.0509 11.1041 21.0512 11.6238 20.7308 11.9441Z" fill="black"/>
<path d="M13.7017 14.0029C13.3816 14.3229 12.862 14.3233 12.5416 14.0029L10.7743 12.2356L9.44922 13.5606L13.1216 17.2331L18.9907 11.364L17.6656 10.0389L13.7017 14.0029Z" fill="black"/>
</svg>
