<svg viewBox="0 0 28 28" fill="none" xmlns="http://www.w3.org/2000/svg">
<path d="M27.9598 10.7875C27.8633 10.4905 27.6067 10.2741 27.2977 10.2292L18.6176 8.96785L14.7356 1.10234C14.5975 0.822337 14.3123 0.645096 14 0.645096C13.6878 0.645096 13.4026 0.822337 13.2644 1.10234L9.38231 8.96785L0.702342 10.2292C0.393413 10.2741 0.136656 10.4905 0.0401879 10.7875C-0.0563351 11.0845 0.0241646 11.4105 0.247781 11.6284L6.52851 17.7508L5.04604 26.396C4.99322 26.7038 5.11976 27.0147 5.37236 27.1983C5.51526 27.3021 5.68452 27.3549 5.85459 27.3549C5.98519 27.3549 6.11622 27.3238 6.2362 27.2607L14 23.1789L21.7635 27.2606C22.0399 27.4059 22.3747 27.3818 22.6273 27.1982C22.8799 27.0147 23.0065 26.7037 22.9538 26.3959L21.4708 17.7508L27.7523 11.6283C27.9758 11.4105 28.0564 11.0845 27.9598 10.7875Z" fill="black"/>
</svg>
