<svg viewBox="0 0 24 22" fill="none" xmlns="http://www.w3.org/2000/svg">
<path d="M19.3207 21.7337C19.1332 21.7337 18.947 21.6782 18.7873 21.5699L12.7527 17.4766L9.51614 19.8055C9.2623 19.988 8.93512 20.034 8.64037 19.9286C8.34599 19.823 8.12243 19.5791 8.04262 19.2768L6.41749 13.118L0.610684 10.8976C0.245123 10.7578 0.00268211 10.408 2.21043e-05 10.0166C-0.00263791 9.62524 0.23499 9.27221 0.598778 9.12743L22.6784 0.341804C22.7786 0.299244 22.8846 0.27467 22.9915 0.268084C23.0298 0.265804 23.0681 0.265804 23.1063 0.267957C23.3277 0.28113 23.5452 0.371317 23.7149 0.537758C23.7325 0.554985 23.7492 0.572591 23.7651 0.590958C23.9057 0.751572 23.9829 0.947399 23.9975 1.1469C24.001 1.19706 24.0008 1.24785 23.9963 1.29865C23.9933 1.33487 23.9881 1.37097 23.9808 1.40682L20.2538 20.9616C20.1939 21.2757 19.9801 21.5387 19.6847 21.6611C19.5676 21.7098 19.4438 21.7337 19.3207 21.7337ZM13.2826 15.5401L18.658 19.1862L21.5579 3.97044L11.0842 14.0488L13.2573 15.523C13.266 15.5284 13.2744 15.5343 13.2826 15.5401ZM8.80782 14.7293L9.52754 17.4564L11.0782 16.3406L9.04773 14.9632C8.95336 14.8994 8.87255 14.8199 8.80782 14.7293ZM3.56393 9.99244L7.55116 11.5169C7.83679 11.6261 8.05238 11.8662 8.1304 12.1619L8.63606 14.0782C8.65924 13.8572 8.75943 13.6492 8.9222 13.4925L18.9022 3.88937L3.56393 9.99244Z" fill="black"/>
</svg>
