<svg xmlns="http://www.w3.org/2000/svg" viewBox="0 0 400 557.627"><path d="M43.883 33.613C21.874 51.015 3.665 65.94 3.417 66.779c-.247.839 9.258 9.614 21.123 19.502l21.572 17.977 3.949 15.622c2.58 10.208 9.827 28.237 20.908 52.02 21.955 47.121 28.577 65.048 31.54 85.379 5.219 35.817 7.699 111.365 3.655 111.365-5.129 0-18.258-24.405-21.413-39.803-6.103-29.789-19.14-47.485-34.983-47.485-6.98 0-7.2.426-8.474 16.378-.685 8.576-3.449 20.471-7.798 33.565-9.611 28.938-9.47 29.78 12.412 74.068 19.584 39.636 20.348 40.583 44.164 54.759 26.531 15.791 52.609 27.961 74.931 34.967 37.413 11.744 42.736 15.567 48.397 34.765 6.871 23.296 29.437 30.857 73.058 24.479 79.419-11.613 124.03-56.108 107.157-106.879-2.055-6.184-5.59-26.262-8.058-45.763-5.716-45.161-11.942-71.186-31.631-132.203-14.436-44.737-34.452-71.187-53.872-71.187-6.087 0-6.083-.021-1.749 8.475 4.378 8.582 4.334 8.786-1.769 8.158-4.753-.489-5.608-1.648-10.868-14.722-8.471-21.054-23.965-34.671-43.416-38.155-8.683-1.555-8.795-.722-2.329 17.366 6.921 19.362 7.031 20.573 1.88 20.573-3.408 0-4.365-1.459-6.875-10.487-9.394-33.788-26.659-52.656-54.775-59.859-13.598-3.484-21.049-1.146-28.804 9.037-6.645 8.725-7.146 11.985-1.682 10.94 5.224-.999 6.963 3.139 11.355 27.008 1.935 10.518 3.884 20.84 4.331 22.937 1.915 8.979-3.663 1.638-25.694-33.812-12.861-20.695-26.891-42.241-31.178-47.882-19.533-25.699-19.755-24.923 8.468-29.566 59.601-9.805 112.268-9.592 183.898.743 47.035 6.786 44.363 6.861 28.814-.814C274.79 61.158 187.212 40.898 111.57 37.793l-25.129-1.032V19.228c0-9.643-.572-17.471-1.272-17.395-.699.076-19.278 14.377-41.286 31.78m30.159 5.478c15.328 5.791 23.95 26.547 17.191 41.383-1.972 4.328-2.034 4.279-8.051-6.368C70.439 51.557 66.095 48.279 55.578 53.27c-8.878 4.212-11.51 10.258-11.51 26.436 0 15.529-1.908 16.217-8.599 3.102-12.986-25.455 11.99-53.761 38.573-43.717" fill-rule="evenodd"/></svg>