<svg viewBox="0 0 28 22" fill="none" xmlns="http://www.w3.org/2000/svg">
<path d="M24.1818 5.90908H20.3636V0.818192H2.54548C1.13907 0.818192 0 1.95726 0 3.36367V17.3637H2.54548C2.54548 19.4701 4.25728 21.1819 6.36366 21.1819C8.47005 21.1819 10.1818 19.4701 10.1818 17.3637H17.8182C17.8182 19.4701 19.53 21.1819 21.6364 21.1819C23.7428 21.1819 25.4546 19.4701 25.4546 17.3637H28.0001V11L24.1818 5.90908ZM6.36366 19.2727C5.30728 19.2727 4.45457 18.42 4.45457 17.3636C4.45457 16.3073 5.30728 15.4545 6.36366 15.4545C7.42005 15.4545 8.27275 16.3073 8.27275 17.3636C8.27275 18.42 7.41999 19.2727 6.36366 19.2727ZM21.6364 19.2727C20.58 19.2727 19.7273 18.42 19.7273 17.3636C19.7273 16.3073 20.58 15.4545 21.6364 15.4545C22.6928 15.4545 23.5455 16.3073 23.5455 17.3636C23.5455 18.42 22.6927 19.2727 21.6364 19.2727ZM20.3636 11V7.81824H23.5454L26.0463 11H20.3636Z" fill="black"/>
</svg>
